<svg width="706" height="268" viewBox="0 0 706 268" fill="none" xmlns="http://www.w3.org/2000/svg">
<path d="M342.019 196C342.552 193.416 342.818 191.365 342.818 189.848C342.818 188.289 342.777 187.12 342.695 186.341C342.654 185.562 342.572 184.741 342.449 183.88C342.367 182.978 342.244 181.993 342.08 180.927C341.957 179.819 341.834 178.548 341.711 177.112C340.768 167.31 337.425 159.25 331.683 152.934C329.14 150.145 326.392 148.032 323.438 146.597C320.485 145.12 318.045 144.382 316.117 144.382C314.23 144.382 312.774 144.505 311.749 144.751C309.452 151.642 308.304 158.84 308.304 166.346C308.304 172.99 308.652 177.953 309.35 181.234C310.457 186.156 312.159 191.099 314.456 196.062H296.061C297.045 193.601 297.537 188.433 297.537 180.558C297.537 172.642 298.132 165.259 299.321 158.409C300.511 151.519 302.049 145.387 303.936 140.014C305.863 134.641 307.996 129.944 310.334 125.925C312.713 121.864 315.071 118.337 317.409 115.343C319.788 112.308 322.023 109.724 324.115 107.591C326.207 105.417 327.95 103.51 329.345 101.869H348.725C346.961 103.879 346.079 106.688 346.079 110.298C346.079 111.938 346.346 114.625 346.879 118.357L348.417 129.555C354.036 168.273 359.061 190.422 363.49 196H342.019ZM314.271 138.229C315.871 137.614 317.553 137.307 319.316 137.307C321.08 137.307 322.659 137.43 324.054 137.676C325.489 137.922 326.904 138.332 328.299 138.906C331.293 140.055 333.795 141.88 335.805 144.382C333.795 133.841 332.564 127.401 332.113 125.063L329.96 114.297L326.453 118.48C321.531 124.387 317.471 130.97 314.271 138.229ZM365.705 129.555C364.721 127.176 364.229 124.366 364.229 121.126C364.229 117.886 364.352 115.24 364.598 113.189C364.844 111.098 365.172 109.211 365.582 107.529C366.566 103.756 367.776 101.869 369.212 101.869H423.414C425.793 101.869 427.393 105.396 428.213 112.451C428.418 114.42 428.521 116.45 428.521 118.542C428.521 123.464 427.987 127.135 426.921 129.555C423.394 118.604 418.82 111.59 413.201 108.514C411.93 107.775 410.679 107.406 409.448 107.406C408.218 107.406 407.254 107.734 406.557 108.391C405.859 109.006 405.285 110.011 404.834 111.405C404.096 113.866 403.727 116.819 403.727 120.265V143.336L403.788 162.162V180.004C403.788 184.023 404.301 186.997 405.326 188.925C406.393 190.812 407.459 192.247 408.525 193.231C409.633 194.216 410.925 195.139 412.401 196H380.963C383.916 193.58 385.803 191.591 386.623 190.032C388.141 187.202 388.899 183.859 388.899 180.004V124.571C388.899 118.132 388.653 113.989 388.161 112.144C387.669 110.257 387.074 109.006 386.377 108.391C385.68 107.734 384.716 107.406 383.485 107.406C382.255 107.406 381.004 107.775 379.732 108.514C378.461 109.211 377.21 110.154 375.979 111.344C374.79 112.492 373.642 113.846 372.534 115.404C371.468 116.922 370.483 118.501 369.581 120.142C367.817 123.382 366.525 126.52 365.705 129.555ZM485.614 173.236C486.722 174.836 487.275 176.764 487.275 179.02C487.275 181.275 487.111 183.224 486.783 184.864C486.496 186.505 486.086 188.063 485.553 189.54C484.322 192.78 482.764 194.934 480.877 196H431.412C434.652 193.99 436.765 192.247 437.749 190.771C439.636 187.981 440.579 184.372 440.579 179.942C440.538 169.032 440.518 159.168 440.518 150.35V118.111C440.518 112.164 439.533 107.796 437.564 105.007C436.867 103.981 436.006 102.936 434.98 101.869H460.267C457.847 105.355 456.473 108.944 456.145 112.636C456.062 113.866 456.021 115.22 456.021 116.696V173.052C456.021 180.722 456.432 185.315 457.252 186.833C458.072 188.31 459.057 189.191 460.205 189.479C461.354 189.725 463.097 189.848 465.435 189.848C467.772 189.848 469.987 189.438 472.079 188.617C474.171 187.797 476.037 186.648 477.678 185.172C480.467 182.629 483.112 178.65 485.614 173.236ZM535.694 196C536.228 193.416 536.494 191.365 536.494 189.848C536.494 188.289 536.453 187.12 536.371 186.341C536.33 185.562 536.248 184.741 536.125 183.88C536.043 182.978 535.92 181.993 535.756 180.927C535.633 179.819 535.51 178.548 535.387 177.112C534.443 167.31 531.101 159.25 525.358 152.934C522.815 150.145 520.067 148.032 517.114 146.597C514.161 145.12 511.721 144.382 509.793 144.382C507.906 144.382 506.45 144.505 505.425 144.751C503.128 151.642 501.979 158.84 501.979 166.346C501.979 172.99 502.328 177.953 503.025 181.234C504.133 186.156 505.835 191.099 508.132 196.062H489.736C490.721 193.601 491.213 188.433 491.213 180.558C491.213 172.642 491.808 165.259 492.997 158.409C494.187 151.519 495.725 145.387 497.611 140.014C499.539 134.641 501.672 129.944 504.01 125.925C506.389 121.864 508.747 118.337 511.085 115.343C513.464 112.308 515.699 109.724 517.791 107.591C519.883 105.417 521.626 103.51 523.021 101.869H542.4C540.637 103.879 539.755 106.688 539.755 110.298C539.755 111.938 540.021 114.625 540.555 118.357L542.093 129.555C547.712 168.273 552.736 190.422 557.166 196H535.694ZM507.947 138.229C509.547 137.614 511.229 137.307 512.992 137.307C514.756 137.307 516.335 137.43 517.729 137.676C519.165 137.922 520.58 138.332 521.975 138.906C524.969 140.055 527.471 141.88 529.48 144.382C527.471 133.841 526.24 127.401 525.789 125.063L523.636 114.297L520.129 118.48C515.207 124.387 511.146 130.97 507.947 138.229ZM578.33 163.393C577.797 167.658 577.53 171.062 577.53 173.605C577.53 176.107 577.838 178.425 578.453 180.558C579.068 182.69 579.95 184.536 581.099 186.095C583.56 189.417 586.677 191.078 590.45 191.078C597.669 191.078 601.278 187.1 601.278 179.143C601.278 172.744 597.566 165.956 590.143 158.778L583.744 152.564C578.125 147.15 574.29 142.803 572.239 139.521C568.179 133.041 566.148 126.602 566.148 120.203C566.148 114.994 567.83 110.626 571.193 107.099C575.254 102.792 581.099 100.639 588.728 100.639C591.722 100.639 593.978 100.782 595.495 101.069C598.325 101.603 600.212 101.869 601.155 101.869C603.534 101.869 605.38 101.131 606.692 99.6543C607.185 99.1211 607.718 98.4238 608.292 97.5625C611.286 99.2441 612.783 105.417 612.783 116.081C612.783 122.89 612.106 127.914 610.753 131.154C610.302 132.262 609.789 132.959 609.215 133.246C608.559 127.053 606.549 121.516 603.186 116.635C599.248 110.893 594.695 108.021 589.527 108.021C585.098 108.021 582.37 110.052 581.345 114.112C581.058 115.261 580.914 116.696 580.914 118.419C580.914 120.101 581.427 122.028 582.452 124.202C583.478 126.376 584.811 128.55 586.451 130.724C588.133 132.856 590.061 135.01 592.234 137.184C598.797 143.91 603.145 148.463 605.277 150.842C607.451 153.221 609.379 155.682 611.061 158.225C614.752 163.926 616.598 169.442 616.598 174.774C616.598 181.214 614.096 186.546 609.092 190.771C603.924 195.077 597.279 197.23 589.158 197.23C582.432 197.23 576.648 195.549 571.809 192.186C566.477 188.494 563.811 183.613 563.811 177.543C565.41 171.842 568.896 167.658 574.27 164.992C575.705 164.254 577.059 163.721 578.33 163.393Z" fill="white"/>
<path d="M261.262 127.942H172.492C163.192 127.942 158.542 116.702 165.112 110.132L227.882 47.3618C229.992 45.2518 230.352 41.8018 228.432 39.5118C226.262 36.9318 222.402 36.8018 220.072 39.1418L157.092 102.122C150.522 108.692 139.282 104.042 139.282 94.7418V5.96181C139.282 2.97181 137.102 0.281811 134.122 0.0218107C130.762 -0.268189 127.942 2.37181 127.942 5.67181V94.7318C127.942 104.032 116.702 108.682 110.132 102.112L47.1518 39.1318C44.8218 36.8018 40.9618 36.9218 38.7918 39.5018C36.8718 41.7918 37.2318 45.2418 39.3418 47.3518L102.112 110.122C108.682 116.692 104.032 127.932 94.7318 127.932H5.96181C2.97181 127.932 0.281811 130.112 0.0218107 133.092C-0.268189 136.452 2.37181 139.272 5.67181 139.272H94.7318C104.032 139.272 108.682 150.512 102.112 157.082L39.3518 219.842C37.0518 222.142 36.9218 226.032 39.3118 228.232C40.3918 229.232 41.7718 229.732 43.1518 229.732C44.6018 229.732 46.0518 229.182 47.1618 228.072L110.142 165.092C116.712 158.522 127.952 163.172 127.952 172.472V261.242C127.952 264.232 130.132 266.922 133.112 267.182C136.472 267.472 139.292 264.832 139.292 261.532V172.472C139.292 163.172 150.532 158.522 157.102 165.092L220.082 228.072C221.192 229.182 222.642 229.732 224.092 229.732C225.542 229.732 226.852 229.232 227.932 228.232C230.322 226.032 230.182 222.132 227.892 219.842L165.132 157.082C158.562 150.512 163.212 139.272 172.512 139.272H261.572C264.872 139.272 267.512 136.452 267.222 133.092C266.962 130.112 264.272 127.932 261.282 127.932L261.262 127.942Z" fill="#FFD901"/>
</svg>
