<svg width="268" height="268" viewBox="0 0 268 268" fill="none" xmlns="http://www.w3.org/2000/svg">
<path d="M261.262 127.942H172.492C163.192 127.942 158.542 116.702 165.112 110.132L227.882 47.3618C229.992 45.2518 230.352 41.8018 228.432 39.5118C226.262 36.9318 222.402 36.8018 220.072 39.1418L157.092 102.122C150.522 108.692 139.282 104.042 139.282 94.7418V5.96181C139.282 2.97181 137.102 0.281811 134.122 0.0218107C130.762 -0.268189 127.942 2.37181 127.942 5.67181V94.7318C127.942 104.032 116.702 108.682 110.132 102.112L47.1518 39.1318C44.8218 36.8018 40.9618 36.9218 38.7918 39.5018C36.8718 41.7918 37.2318 45.2418 39.3418 47.3518L102.112 110.122C108.682 116.692 104.032 127.932 94.7318 127.932H5.96181C2.97181 127.932 0.281811 130.112 0.0218107 133.092C-0.268189 136.452 2.37181 139.272 5.67181 139.272H94.7318C104.032 139.272 108.682 150.512 102.112 157.082L39.3518 219.842C37.0518 222.142 36.9218 226.032 39.3118 228.232C40.3918 229.232 41.7718 229.732 43.1518 229.732C44.6018 229.732 46.0518 229.182 47.1618 228.072L110.142 165.092C116.712 158.522 127.952 163.172 127.952 172.472V261.242C127.952 264.232 130.132 266.922 133.112 267.182C136.472 267.472 139.292 264.832 139.292 261.532V172.472C139.292 163.172 150.532 158.522 157.102 165.092L220.082 228.072C221.192 229.182 222.642 229.732 224.092 229.732C225.542 229.732 226.852 229.232 227.932 228.232C230.322 226.032 230.182 222.132 227.892 219.842L165.132 157.082C158.562 150.512 163.212 139.272 172.512 139.272H261.572C264.872 139.272 267.512 136.452 267.222 133.092C266.962 130.112 264.272 127.932 261.282 127.932L261.262 127.942Z" fill="#FFD901"/>
</svg>
